<svg width="12" height="12" viewBox="0 0 12 12" fill="none" xmlns="http://www.w3.org/2000/svg">
<path d="M10.0294 11.1873L6.21736 7.36335L2.40536 11.1873C2.30547 11.2879 2.18675 11.3678 2.05602 11.4223C1.92528 11.4768 1.78511 11.5049 1.64354 11.5049C1.50197 11.5049 1.36179 11.4768 1.23106 11.4223C1.10032 11.3678 0.981603 11.2879 0.881716 11.1873C0.781393 11.087 0.701786 10.9679 0.647467 10.8367C0.593148 10.7055 0.565186 10.5649 0.565186 10.4228C0.565186 10.2808 0.593148 10.1401 0.647467 10.0089C0.701786 9.87775 0.781393 9.75863 0.881716 9.6584L4.69256 5.83331L0.881716 2.00823C0.781393 1.908 0.701786 1.78887 0.647467 1.65769C0.593148 1.52651 0.565186 1.38585 0.565186 1.24379C0.565186 1.10174 0.593148 0.961081 0.647467 0.829898C0.701786 0.698715 0.781393 0.579589 0.881716 0.47936C0.981603 0.378692 1.10032 0.298813 1.23106 0.244307C1.36179 0.189801 1.50197 0.161743 1.64354 0.161743C1.78511 0.161743 1.92528 0.189801 2.05602 0.244307C2.18675 0.298813 2.30547 0.378692 2.40536 0.47936L6.21736 4.30328L10.0294 0.47936C10.1292 0.378692 10.248 0.298813 10.3787 0.244307C10.5094 0.189801 10.6496 0.161743 10.7912 0.161743C10.9328 0.161743 11.0729 0.189801 11.2037 0.244307C11.3344 0.298813 11.4531 0.378692 11.553 0.47936C11.6533 0.579589 11.7329 0.698715 11.7872 0.829898C11.8416 0.961081 11.8695 1.10174 11.8695 1.24379C11.8695 1.38585 11.8416 1.52651 11.7872 1.65769C11.7329 1.78887 11.6533 1.908 11.553 2.00823L7.74216 5.83331L11.553 9.6584C11.6533 9.75863 11.7329 9.87775 11.7872 10.0089C11.8416 10.1401 11.8695 10.2808 11.8695 10.4228C11.8695 10.5649 11.8416 10.7055 11.7872 10.8367C11.7329 10.9679 11.6533 11.087 11.553 11.1873C11.4531 11.2879 11.3344 11.3678 11.2037 11.4223C11.0729 11.4768 10.9328 11.5049 10.7912 11.5049C10.6496 11.5049 10.5094 11.4768 10.3787 11.4223C10.248 11.3678 10.1292 11.2879 10.0294 11.1873Z" fill="white"/>
</svg>
