<svg width="34" height="35" viewBox="0 0 34 35" fill="white" xmlns="http://www.w3.org/2000/svg">
<path fill-rule="evenodd" clip-rule="evenodd" d="M17.0001 10.9545C13.2605 10.9545 10.2296 13.8847 10.2296 17.5C10.2296 21.1153 13.2605 24.0455 17.0001 24.0455C20.7397 24.0455 23.7707 21.1153 23.7707 17.5C23.7707 13.8847 20.7397 10.9545 17.0001 10.9545ZM19.8222 1.5C19.9381 1.5 20.1043 1.51236 20.2932 1.57345C20.725 1.71164 20.9665 2.00982 21.0191 2.076C21.1402 2.23164 21.2102 2.388 21.2516 2.51455C21.4351 3.21564 21.6172 3.91745 21.8 4.61855C21.8218 4.69709 21.8526 4.78436 21.8963 4.87527C22.0385 5.16618 22.2483 5.35091 22.392 5.45491C22.7606 5.68836 23.1293 5.92182 23.4986 6.15527C23.9387 6.36545 24.3788 6.57636 24.8189 6.78727C24.9385 6.84327 25.1582 6.92764 25.4448 6.93418C25.4561 6.93418 25.4673 6.93418 25.4786 6.93418C25.7073 6.93418 25.8901 6.88327 26.003 6.84255C26.58 6.65418 27.1562 6.46582 27.7332 6.27673C27.8182 6.23964 28.0537 6.14655 28.3651 6.14655C28.4832 6.14655 28.6126 6.16036 28.7488 6.19527C29.3265 6.34364 29.6064 6.772 29.6643 6.86364C30.6611 8.48109 31.6579 10.0985 32.6546 11.7153C32.7148 11.8113 32.7915 11.9596 32.8359 12.1516C32.9337 12.5815 32.7923 12.9349 32.76 13.012C32.684 13.1924 32.5809 13.3305 32.4899 13.4295C31.9603 13.94 31.4307 14.4513 30.9011 14.9618C30.8424 15.02 30.7807 15.0905 30.722 15.1735C30.537 15.4396 30.4798 15.7095 30.461 15.8811C30.4347 16.4876 30.4083 17.0935 30.3812 17.7C30.4023 17.9924 30.4219 18.2847 30.4429 18.5771C30.452 18.7065 30.4873 18.9313 30.6257 19.1742C30.7446 19.3815 30.8898 19.5175 30.9883 19.596C31.4472 19.9822 31.9054 20.3691 32.3643 20.756C32.4688 20.8287 32.8126 21.0869 32.9473 21.564C33.1052 22.1211 32.863 22.5713 32.8096 22.6658C31.8647 24.3116 30.9199 25.9575 29.9758 27.604C29.9193 27.7022 29.8261 27.8411 29.6756 27.9742C29.3416 28.2724 28.9542 28.332 28.8692 28.3436C28.7969 28.3531 28.7277 28.3575 28.663 28.3575C28.5487 28.3575 28.4456 28.3444 28.3599 28.3276C27.6369 28.1422 26.9132 27.956 26.1903 27.7705C26.109 27.7502 26.015 27.7335 25.9119 27.7269C25.8773 27.7247 25.8442 27.724 25.8111 27.724C25.526 27.724 25.2936 27.8011 25.1476 27.8644C24.9242 27.9778 24.7015 28.0913 24.4781 28.2047L24.5014 28.228C23.7627 28.6716 23.0247 29.1153 22.2867 29.5589C22.1739 29.628 21.985 29.764 21.8278 29.996C21.6939 30.1945 21.639 30.3829 21.6134 30.5029L21.2004 32.2222C21.1831 32.3458 21.1086 32.7604 20.7363 33.1C20.3187 33.4804 19.8185 33.5 19.6816 33.5C19.6755 33.5 19.6703 33.5 19.6658 33.5C17.7196 33.4673 15.7727 33.4338 13.8251 33.4011C13.7092 33.3996 13.5384 33.3851 13.3466 33.3196C12.9171 33.1742 12.6808 32.8716 12.6297 32.804C12.5116 32.6469 12.4446 32.4898 12.4048 32.3625C12.2355 31.6578 12.0647 30.9538 11.8947 30.2491C11.8752 30.1698 11.8458 30.0825 11.8029 29.9909C11.6668 29.6978 11.4599 29.5095 11.3192 29.4033C10.8001 29.0622 10.2803 28.7211 9.76124 28.38C9.49343 28.2425 9.22637 28.1051 8.95856 27.9676C8.8397 27.908 8.62304 27.8178 8.33642 27.8033C8.3116 27.8025 8.28677 27.8018 8.26195 27.8018C8.05206 27.8018 7.8828 27.844 7.77522 27.8796C7.19371 28.0527 6.6122 28.2258 6.03069 28.3982C5.94794 28.4316 5.72752 28.5124 5.43714 28.5124C5.30775 28.5124 5.16406 28.4964 5.0121 28.4527C4.43961 28.2876 4.1718 27.852 4.11689 27.7589L1.26875 22.828C1.21158 22.7305 1.13936 22.58 1.10024 22.3865C1.01523 21.9545 1.16644 21.6062 1.2018 21.5291C1.28229 21.3509 1.38912 21.2156 1.48391 21.1189C2.0278 20.6229 2.5717 20.1269 3.11635 19.6302C3.17729 19.5742 3.24048 19.5058 3.30141 19.4244C3.49475 19.1625 3.55945 18.8949 3.58352 18.724L3.60609 18.4091C3.56622 17.5924 3.52635 16.7756 3.48723 15.9596C3.4797 15.8309 3.44961 15.6047 3.31646 15.3589C3.20211 15.1495 3.05843 15.0105 2.96289 14.9305C2.51227 14.5349 2.06241 14.1393 1.61179 13.7436C1.50873 13.6687 1.16945 13.404 1.04457 12.924C0.899384 12.364 1.15065 11.9189 1.20556 11.8258C2.18503 10.1989 3.16375 8.57127 4.14246 6.94436C4.20039 6.84691 4.29668 6.71018 4.44939 6.57927C4.79018 6.28836 5.17835 6.236 5.26411 6.22655C5.32505 6.21927 5.38448 6.21564 5.4409 6.21564C5.56728 6.21564 5.68012 6.23164 5.77265 6.252C6.49183 6.452 7.21101 6.65127 7.93019 6.85127C8.01144 6.87309 8.10397 6.89127 8.20779 6.89927C8.25367 6.90364 8.29731 6.90509 8.34019 6.90509C8.61101 6.90509 8.83293 6.836 8.97511 6.77709C9.53631 6.50582 10.0975 6.23382 10.6587 5.96182L11.4223 5.48473C11.5336 5.41345 11.7209 5.27455 11.8729 5.04036C12.003 4.83964 12.0557 4.64982 12.079 4.52982C12.2054 3.95455 12.3333 3.37855 12.4604 2.80327C12.4755 2.67964 12.5424 2.26364 12.9088 1.91818C13.3353 1.51455 13.8604 1.5 13.9718 1.5H19.8132C19.8162 1.5 19.8192 1.5 19.8222 1.5ZM17.0001 12.4091C19.9039 12.4091 22.2661 14.6927 22.2661 17.5C22.2661 20.3073 19.9039 22.5909 17.0001 22.5909C14.0963 22.5909 11.7342 20.3073 11.7342 17.5C11.7342 14.6927 14.0963 12.4091 17.0001 12.4091ZM19.8147 2.95455H13.9718L13.9627 3.02436L13.9319 3.108L13.5535 4.81782C13.4828 5.172 13.3459 5.50727 13.1473 5.81345C12.9171 6.16909 12.6146 6.46727 12.2505 6.69927L11.4749 7.18364L11.4057 7.22655L11.3328 7.26218L10.1991 7.81127L9.64915 8.07745L9.60627 8.09855L9.56264 8.11673C9.1692 8.27818 8.7577 8.35964 8.34019 8.35964C8.25518 8.35964 8.16716 8.356 8.07764 8.34873C7.89709 8.33345 7.71354 8.30218 7.53374 8.25491L6.45347 7.95455L5.44466 7.67382L3.59556 10.7465L2.50625 12.5575L2.56192 12.5975L2.62286 12.6673L3.25402 13.2215L3.96267 13.8433C4.24402 14.0811 4.47422 14.3633 4.648 14.6818C4.8481 15.0498 4.96546 15.4636 4.98953 15.8789L5.10914 18.34L5.1129 18.4258L5.10689 18.5109L5.08432 18.8258L5.08056 18.8724L5.07454 18.9196C5.00533 19.4105 4.815 19.8782 4.52537 20.2702C4.41629 20.4164 4.29442 20.5524 4.16127 20.6775L3.84155 20.9691L2.58223 22.116L5.43037 27.0491L5.49732 27.0229L5.58835 27.0084L7.31633 26.4942C7.62251 26.3967 7.94073 26.3473 8.26195 26.3473C8.31085 26.3473 8.3605 26.3487 8.41165 26.3509C8.84421 26.3727 9.27301 26.4855 9.65442 26.6789L10.0674 26.8905L10.4669 27.0956L10.5399 27.1327L10.6068 27.1771L11.0371 27.4593L12.164 28.1996L12.2046 28.2265L12.2423 28.2549C12.6477 28.5604 12.9705 28.9538 13.1758 29.3938C13.2518 29.5604 13.3128 29.7305 13.3564 29.9036L13.5821 30.8389L13.8491 31.9436L16.6521 31.9938L19.6928 32.0455L19.7019 31.9764L19.7342 31.8927L20.1442 30.1887C20.2217 29.8345 20.3646 29.5022 20.5677 29.2011C20.8055 28.8491 21.1124 28.5567 21.4818 28.3305L22 28L23 27.5L23.7785 26.9175L24.2953 26.6542L24.4465 26.5771L24.4894 26.5553L24.5338 26.5364C24.9445 26.3589 25.3741 26.2695 25.8111 26.2695C25.8766 26.2695 25.9428 26.2716 26.0105 26.2753C26.1993 26.2876 26.3851 26.3167 26.5664 26.3625L28.6585 26.8993L31.4946 21.9596L31.4359 21.9189L31.3743 21.852L30.0119 20.7022C29.7253 20.4695 29.4883 20.1916 29.3085 19.876C29.1001 19.5116 28.973 19.0985 28.9421 18.6818L28.9113 18.2345L28.8804 17.7996L28.8744 17.7189L28.8782 17.6382L28.8865 17.4455L28.9579 15.82L28.9594 15.7742L28.9647 15.7276C29.0189 15.2353 29.1949 14.7625 29.474 14.3618C29.5786 14.212 29.6959 14.0738 29.8238 13.9458L30.6047 13.1931L31.3637 12.4607L28.3719 7.60836L28.3065 7.63673L28.2162 7.65418L26.5025 8.21491C26.173 8.33055 25.8284 8.38873 25.4786 8.38873H25.4613L25.4109 8.388C24.9761 8.37855 24.5571 8.28036 24.1644 8.09709L22.8314 7.45855L22.7501 7.42L22.6749 7.37273L22.0753 6.99309L21.5675 6.67236L21.5277 6.64691L21.4885 6.61855C21.0785 6.32109 20.749 5.93273 20.5354 5.49564C20.4564 5.332 20.3917 5.16182 20.3451 4.988L20.0539 3.87091L19.8147 2.95455Z" stroke="#41444E" stroke-width="1.5"/>
</svg>
