<svg width="16" height="10" viewBox="0 0 16 10" fill="№41444E" xmlns="http://www.w3.org/2000/svg">
    <path d="M2.68792 0.934179C2.09928 0.351257 1.14955 0.355889 0.566625 0.944526C-0.0162969 1.53316 -0.0116646 2.4829 0.576972 3.06582L2.68792 0.934179ZM7.69126 8L6.63579 9.06582C7.22037 9.64473 8.16216 9.64473 8.74674 9.06582L7.69126 8ZM14.8056 3.06582C15.3942 2.4829 15.3988 1.53316 14.8159 0.944526C14.233 0.355889 13.2832 0.351257 12.6946 0.934179L14.8056 3.06582ZM0.576972 3.06582L6.63579 9.06582L8.74674 6.93418L2.68792 0.934179L0.576972 3.06582ZM8.74674 9.06582L14.8056 3.06582L12.6946 0.934179L6.63579 6.93418L8.74674 9.06582Z"
          fill="white"/>
</svg>
