<svg width="35" height="39" viewBox="0 0 35 39" fill="none" xmlns="http://www.w3.org/2000/svg">
    <path d="M34.0607 13.0607C34.6464 12.4749 34.6464 11.5251 34.0607 10.9393L24.5147 1.3934C23.9289 0.807611 22.9792 0.807611 22.3934 1.3934C21.8076 1.97919 21.8076 2.92893 22.3934 3.51472L30.8787 12L22.3934 20.4853C21.8076 21.0711 21.8076 22.0208 22.3934 22.6066C22.9792 23.1924 23.9289 23.1924 24.5147 22.6066L34.0607 13.0607ZM2 13.5L33 13.5V10.5L2 10.5L2 13.5Z"
          fill="white"/>
    <path d="M0.939339 25.9393C0.353554 26.5251 0.353554 27.4749 0.939339 28.0607L10.4853 37.6066C11.0711 38.1924 12.0208 38.1924 12.6066 37.6066C13.1924 37.0208 13.1924 36.0711 12.6066 35.4853L4.12132 27L12.6066 18.5147C13.1924 17.9289 13.1924 16.9792 12.6066 16.3934C12.0208 15.8076 11.0711 15.8076 10.4853 16.3934L0.939339 25.9393ZM33 25.5L2 25.5L2 28.5L33 28.5L33 25.5Z"
          fill="white"/>
</svg>
